<svg width="114" height="32" viewBox="0 0 114 32" fill="none" xmlns="http://www.w3.org/2000/svg">
<circle cx="16" cy="16" r="15.5" stroke="black"/>
<path d="M113.354 16.3536C113.549 16.1583 113.549 15.8417 113.354 15.6464L110.172 12.4645C109.976 12.2692 109.66 12.2692 109.464 12.4645C109.269 12.6597 109.269 12.9763 109.464 13.1716L112.293 16L109.464 18.8284C109.269 19.0237 109.269 19.3403 109.464 19.5355C109.66 19.7308 109.976 19.7308 110.172 19.5355L113.354 16.3536ZM16 16.5H113V15.5H16V16.5Z" fill="black"/>
<path d="M42.92 13.4C42.736 13.672 42.552 13.868 42.368 13.988C42.184 14.108 41.94 14.168 41.636 14.168C41.308 14.168 41.036 14.072 40.82 13.88C40.612 13.688 40.456 13.352 40.352 12.872L40.088 11.672C39.992 11.256 39.9 10.936 39.812 10.712C39.732 10.488 39.608 10.308 39.44 10.172C39.272 10.036 39.036 9.968 38.732 9.968H37.592V12.728C37.592 13.032 37.616 13.252 37.664 13.388C37.712 13.524 37.8 13.616 37.928 13.664C38.064 13.712 38.276 13.744 38.564 13.76V14C38.196 13.976 37.688 13.964 37.04 13.964C36.352 13.964 35.84 13.976 35.504 14V13.76C35.792 13.744 36 13.712 36.128 13.664C36.264 13.616 36.356 13.524 36.404 13.388C36.452 13.252 36.476 13.032 36.476 12.728V6.776C36.476 6.472 36.452 6.252 36.404 6.116C36.356 5.98 36.264 5.888 36.128 5.84C36 5.792 35.792 5.76 35.504 5.744V5.504C35.84 5.528 36.328 5.54 36.968 5.54L38.264 5.528C38.416 5.52 38.588 5.516 38.78 5.516C39.708 5.516 40.42 5.712 40.916 6.104C41.42 6.488 41.672 6.988 41.672 7.604C41.672 7.916 41.596 8.232 41.444 8.552C41.3 8.864 41.052 9.148 40.7 9.404C40.356 9.652 39.904 9.82 39.344 9.908L39.488 9.932C40.016 10.02 40.4 10.18 40.64 10.412C40.88 10.644 41.056 11.012 41.168 11.516L41.468 12.74C41.548 13.108 41.632 13.364 41.72 13.508C41.808 13.652 41.928 13.724 42.08 13.724C42.216 13.724 42.328 13.688 42.416 13.616C42.512 13.544 42.62 13.428 42.74 13.268L42.92 13.4ZM38.48 5.744C38.232 5.744 38.044 5.772 37.916 5.828C37.796 5.884 37.712 5.984 37.664 6.128C37.616 6.272 37.592 6.488 37.592 6.776V9.728H38.396C39.188 9.728 39.732 9.552 40.028 9.2C40.324 8.848 40.472 8.36 40.472 7.736C40.472 7.08 40.316 6.584 40.004 6.248C39.692 5.912 39.184 5.744 38.48 5.744ZM49.1893 12.584C49.1893 13 49.2173 13.472 49.2733 14C48.7533 13.976 47.8773 13.964 46.6453 13.964C45.1653 13.964 44.0453 13.976 43.2853 14V13.76C43.5733 13.744 43.7813 13.712 43.9093 13.664C44.0453 13.616 44.1373 13.524 44.1853 13.388C44.2333 13.252 44.2573 13.032 44.2573 12.728V7.976C44.2573 7.672 44.2333 7.452 44.1853 7.316C44.1373 7.18 44.0453 7.088 43.9093 7.04C43.7813 6.992 43.5733 6.96 43.2853 6.944V6.704C44.0453 6.728 45.1653 6.74 46.6453 6.74C47.7653 6.74 48.5613 6.728 49.0333 6.704C48.9773 7.184 48.9492 7.616 48.9492 8C48.9492 8.312 48.9613 8.56 48.9853 8.744H48.7093C48.6533 8.088 48.5133 7.632 48.2893 7.376C48.0733 7.112 47.7173 6.98 47.2213 6.98H46.3453C46.0573 6.98 45.8453 7.004 45.7093 7.052C45.5813 7.092 45.4933 7.18 45.4453 7.316C45.3973 7.452 45.3733 7.672 45.3733 7.976V10.208H46.3693C46.6253 10.208 46.8213 10.144 46.9573 10.016C47.0933 9.88 47.1853 9.736 47.2333 9.584C47.2813 9.424 47.3253 9.224 47.3653 8.984H47.6413C47.6173 9.256 47.6053 9.552 47.6053 9.872V10.328C47.6053 10.64 47.6293 11.088 47.6773 11.672H47.4013C47.3533 11.288 47.2613 10.988 47.1253 10.772C46.9893 10.556 46.7373 10.448 46.3693 10.448H45.3733V12.728C45.3733 13.032 45.3973 13.252 45.4453 13.388C45.4933 13.524 45.5813 13.616 45.7093 13.664C45.8453 13.704 46.0573 13.724 46.3453 13.724H47.2213C47.6213 13.724 47.9373 13.66 48.1693 13.532C48.4013 13.404 48.5773 13.2 48.6973 12.92C48.8173 12.632 48.9013 12.232 48.9492 11.72H49.2253C49.2013 11.936 49.1893 12.224 49.1893 12.584ZM56.518 12.992C56.734 13.488 57.01 13.744 57.346 13.76V14C57.026 13.976 56.598 13.964 56.062 13.964C55.374 13.964 54.862 13.976 54.526 14V13.76C54.822 13.744 55.038 13.704 55.174 13.64C55.318 13.576 55.39 13.468 55.39 13.316C55.39 13.188 55.334 13 55.222 12.752L54.61 11.384H51.694L51.286 12.284C51.15 12.596 51.082 12.852 51.082 13.052C51.082 13.26 51.154 13.424 51.298 13.544C51.45 13.656 51.69 13.728 52.018 13.76V14C51.778 13.976 51.414 13.964 50.926 13.964C50.438 13.964 50.09 13.976 49.882 14V13.76C50.098 13.704 50.282 13.584 50.434 13.4C50.586 13.208 50.73 12.956 50.866 12.644L53.518 6.644H53.71L56.518 12.992ZM54.514 11.144L53.158 8.096L51.79 11.144H54.514ZM61.0925 6.704C62.3405 6.704 63.2765 7.008 63.9005 7.616C64.5325 8.216 64.8485 9.096 64.8485 10.256C64.8485 11.008 64.6965 11.668 64.3925 12.236C64.0885 12.796 63.6445 13.232 63.0605 13.544C62.4845 13.848 61.7925 14 60.9845 14L60.2885 13.988C59.8405 13.972 59.5125 13.964 59.3045 13.964C58.6485 13.964 58.1525 13.976 57.8165 14V13.76C58.1045 13.744 58.3125 13.712 58.4405 13.664C58.5765 13.616 58.6685 13.524 58.7165 13.388C58.7645 13.252 58.7885 13.032 58.7885 12.728V7.976C58.7885 7.672 58.7645 7.452 58.7165 7.316C58.6685 7.18 58.5765 7.088 58.4405 7.04C58.3125 6.992 58.1045 6.96 57.8165 6.944V6.704C58.0965 6.728 58.4845 6.74 58.9805 6.74L60.0005 6.728C60.5445 6.712 60.9085 6.704 61.0925 6.704ZM60.7925 6.92C60.5445 6.92 60.3565 6.948 60.2285 7.004C60.1085 7.06 60.0245 7.16 59.9765 7.304C59.9285 7.448 59.9045 7.664 59.9045 7.952V12.752C59.9045 13.04 59.9285 13.256 59.9765 13.4C60.0245 13.544 60.1085 13.644 60.2285 13.7C60.3565 13.756 60.5485 13.784 60.8045 13.784C61.5325 13.784 62.1045 13.656 62.5205 13.4C62.9365 13.136 63.2285 12.752 63.3965 12.248C63.5645 11.744 63.6485 11.096 63.6485 10.304C63.6485 9.136 63.4325 8.28 63.0005 7.736C62.5685 7.192 61.8325 6.92 60.7925 6.92ZM78.2002 6.944C77.9122 6.96 77.7002 6.992 77.5642 7.04C77.4362 7.088 77.3482 7.18 77.3002 7.316C77.2522 7.452 77.2282 7.672 77.2282 7.976V12.728C77.2282 13.032 77.2522 13.252 77.3002 13.388C77.3482 13.524 77.4362 13.616 77.5642 13.664C77.7002 13.712 77.9122 13.744 78.2002 13.76V14C77.8322 13.976 77.3242 13.964 76.6762 13.964C75.9882 13.964 75.4762 13.976 75.1402 14V13.76C75.4282 13.744 75.6362 13.712 75.7642 13.664C75.9002 13.616 75.9922 13.524 76.0402 13.388C76.0882 13.252 76.1122 13.032 76.1122 12.728V7.46L73.2202 14.06H73.0282L70.2442 7.472V12.608C70.2442 12.92 70.2682 13.152 70.3162 13.304C70.3722 13.456 70.4762 13.568 70.6282 13.64C70.7802 13.704 71.0162 13.744 71.3362 13.76V14C71.0482 13.976 70.6402 13.964 70.1122 13.964C69.6322 13.964 69.2602 13.976 68.9962 14V13.76C69.2762 13.744 69.4842 13.704 69.6202 13.64C69.7562 13.568 69.8482 13.456 69.8962 13.304C69.9442 13.144 69.9682 12.912 69.9682 12.608V7.976C69.9682 7.672 69.9442 7.452 69.8962 7.316C69.8482 7.18 69.7562 7.088 69.6202 7.04C69.4922 6.992 69.2842 6.96 68.9962 6.944V6.704C69.2602 6.728 69.6322 6.74 70.1122 6.74C70.4962 6.74 70.8362 6.728 71.1322 6.704L73.5442 12.548L76.1122 6.74H76.6762C77.3242 6.74 77.8322 6.728 78.2002 6.704V6.944ZM82.9258 6.536C83.6618 6.536 84.3058 6.684 84.8578 6.98C85.4178 7.268 85.8498 7.696 86.1538 8.264C86.4578 8.824 86.6098 9.496 86.6098 10.28C86.6098 11.048 86.4498 11.728 86.1298 12.32C85.8178 12.904 85.3818 13.36 84.8218 13.688C84.2618 14.008 83.6258 14.168 82.9138 14.168C82.1778 14.168 81.5298 14.024 80.9698 13.736C80.4178 13.44 79.9898 13.012 79.6858 12.452C79.3818 11.884 79.2298 11.208 79.2298 10.424C79.2298 9.656 79.3858 8.98 79.6978 8.396C80.0178 7.804 80.4578 7.348 81.0178 7.028C81.5778 6.7 82.2138 6.536 82.9258 6.536ZM82.8778 6.752C82.3898 6.752 81.9578 6.908 81.5818 7.22C81.2138 7.524 80.9298 7.952 80.7298 8.504C80.5298 9.048 80.4298 9.672 80.4298 10.376C80.4298 11.088 80.5418 11.716 80.7658 12.26C80.9898 12.804 81.2938 13.224 81.6777 13.52C82.0618 13.808 82.4898 13.952 82.9618 13.952C83.4498 13.952 83.8778 13.8 84.2458 13.496C84.6218 13.184 84.9098 12.756 85.1098 12.212C85.3098 11.66 85.4098 11.032 85.4098 10.328C85.4098 9.616 85.2978 8.988 85.0738 8.444C84.8498 7.9 84.5458 7.484 84.1618 7.196C83.7778 6.9 83.3498 6.752 82.8778 6.752ZM94.7207 13.496C94.5687 13.712 94.3927 13.88 94.1927 14C94.0007 14.112 93.7687 14.168 93.4967 14.168C92.8247 14.168 92.4127 13.864 92.2607 13.256L91.8887 11.756C91.7767 11.308 91.6087 11.008 91.3847 10.856C91.1687 10.704 90.8447 10.628 90.4127 10.628H89.7287V12.728C89.7287 13.032 89.7527 13.252 89.8007 13.388C89.8487 13.524 89.9367 13.616 90.0647 13.664C90.2007 13.712 90.4127 13.744 90.7007 13.76V14C90.3327 13.976 89.8247 13.964 89.1767 13.964C88.4887 13.964 87.9767 13.976 87.6407 14V13.76C87.9287 13.744 88.1367 13.712 88.2647 13.664C88.4007 13.616 88.4927 13.524 88.5407 13.388C88.5887 13.252 88.6127 13.032 88.6127 12.728V7.976C88.6127 7.672 88.5887 7.452 88.5407 7.316C88.4927 7.18 88.4007 7.088 88.2647 7.04C88.1367 6.992 87.9287 6.96 87.6407 6.944V6.704C87.9767 6.728 88.4647 6.74 89.1047 6.74L90.3287 6.728C90.4647 6.72 90.6207 6.716 90.7967 6.716C91.6927 6.716 92.3767 6.884 92.8487 7.22C93.3287 7.556 93.5687 7.992 93.5687 8.528C93.5687 8.992 93.3807 9.416 93.0047 9.8C92.6367 10.184 92.0287 10.428 91.1807 10.532C91.3407 10.548 91.4767 10.564 91.5887 10.58C92.0127 10.644 92.3487 10.772 92.5967 10.964C92.8447 11.156 93.0207 11.464 93.1247 11.888L93.3887 12.98C93.4527 13.26 93.5207 13.46 93.5927 13.58C93.6727 13.692 93.7727 13.748 93.8927 13.748C94.0927 13.748 94.3127 13.612 94.5527 13.34L94.7207 13.496ZM90.4967 6.944C90.2807 6.944 90.1167 6.972 90.0047 7.028C89.9007 7.084 89.8287 7.184 89.7887 7.328C89.7487 7.472 89.7287 7.688 89.7287 7.976V10.388H90.5327C91.2367 10.388 91.7167 10.24 91.9727 9.944C92.2367 9.64 92.3687 9.212 92.3687 8.66C92.3687 8.084 92.2207 7.656 91.9247 7.376C91.6367 7.088 91.1607 6.944 90.4967 6.944ZM101.033 12.584C101.033 13 101.061 13.472 101.117 14C100.597 13.976 99.721 13.964 98.489 13.964C97.009 13.964 95.889 13.976 95.129 14V13.76C95.417 13.744 95.625 13.712 95.753 13.664C95.889 13.616 95.981 13.524 96.029 13.388C96.077 13.252 96.101 13.032 96.101 12.728V7.976C96.101 7.672 96.077 7.452 96.029 7.316C95.981 7.18 95.889 7.088 95.753 7.04C95.625 6.992 95.417 6.96 95.129 6.944V6.704C95.889 6.728 97.009 6.74 98.489 6.74C99.609 6.74 100.405 6.728 100.877 6.704C100.821 7.184 100.793 7.616 100.793 8C100.793 8.312 100.805 8.56 100.829 8.744H100.553C100.497 8.088 100.357 7.632 100.133 7.376C99.917 7.112 99.561 6.98 99.065 6.98H98.189C97.901 6.98 97.689 7.004 97.553 7.052C97.425 7.092 97.337 7.18 97.289 7.316C97.241 7.452 97.217 7.672 97.217 7.976V10.208H98.213C98.469 10.208 98.665 10.144 98.801 10.016C98.937 9.88 99.029 9.736 99.077 9.584C99.125 9.424 99.169 9.224 99.209 8.984H99.485C99.461 9.256 99.449 9.552 99.449 9.872V10.328C99.449 10.64 99.473 11.088 99.521 11.672H99.245C99.197 11.288 99.105 10.988 98.969 10.772C98.833 10.556 98.581 10.448 98.213 10.448H97.217V12.728C97.217 13.032 97.241 13.252 97.289 13.388C97.337 13.524 97.425 13.616 97.553 13.664C97.689 13.704 97.901 13.724 98.189 13.724H99.065C99.465 13.724 99.781 13.66 100.013 13.532C100.245 13.404 100.421 13.2 100.541 12.92C100.661 12.632 100.745 12.232 100.793 11.72H101.069C101.045 11.936 101.033 12.224 101.033 12.584Z" fill="black"/>
</svg>
